# xmcd
# 
# Track frame offsets:
#     150
#     11082
#     33407
#     57312
#     74525
#     107495
#     131700
#     150090
#     163612
#     179475
#     201877
#     221402
#     261182
#     285395
# 
# Disc length: 4590
# 
# Revision: 17
# Processed by: cddbd v1.5.2PL0 Copyright (c) Steve Scherf et al.
# Submitted via: fre:ac v1.0.31
# 
DISCID=c411ec0e
DTITLE=The Allman Brothers Band - The Road Goes On Forever Disc 1
DYEAR=2001
DGENRE=Rock/Pop
TTITLE0=Don't Want You No More
TTITLE1=It's Not My Cross To Bear
TTITLE2=Blackhearted Woman
TTITLE3=Trouble No More
TTITLE4=Dreams
TTITLE5=Whipping Post
TTITLE6=Revival
TTITLE7=Midnight Rider
TTITLE8=Don't Keep Me Wonderin'
TTITLE9=Hoochie Coochie Man
TTITLE10=Statesboro Blues (Live)
TTITLE11=Stormy Monday (Live)
TTITLE12=Hot 'lanta (Live)
TTITLE13=In Memory Of Elizabeth Reed (Live)
EXTD=YEAR: 2001
EXTT0=
EXTT1=
EXTT2=
EXTT3=
EXTT4=
EXTT5=
EXTT6=
EXTT7=
EXTT8=
EXTT9=
EXTT10=
EXTT11=
EXTT12=
EXTT13=
PLAYORDER=
